<svg xmlns="http://www.w3.org/2000/svg" xmlns:xlink="http://www.w3.org/1999/xlink" width="500" zoomAndPan="magnify" viewBox="0 0 375 374.999991" height="500" preserveAspectRatio="xMidYMid meet" version="1.0"><defs><clipPath id="fe63a0a586"><path d="M 47 47.289062 L 328 47.289062 L 328 327.789062 L 47 327.789062 Z M 47 47.289062 " clip-rule="nonzero"/></clipPath></defs><rect x="-37.5" width="450" fill="#ffffff" y="-37.499999" height="449.999989" fill-opacity="1"/><rect x="-37.5" width="450" fill="#000000" y="-37.499999" height="449.999989" fill-opacity="1"/><g clip-path="url(#fe63a0a586)"><path fill="#ffffff" d="M 52.742188 234.867188 C 55.6875 234.867188 58.074219 232.476562 58.074219 229.535156 L 58.074219 66.019531 L 148.570312 156.503906 C 150.65625 158.582031 154.03125 158.582031 156.113281 156.503906 C 158.191406 154.421875 158.191406 151.046875 156.113281 148.964844 L 56.511719 49.382812 C 54.988281 47.855469 52.695312 47.398438 50.703125 48.226562 C 48.710938 49.050781 47.410156 50.996094 47.410156 53.148438 L 47.410156 229.535156 C 47.410156 232.476562 49.796875 234.867188 52.742188 234.867188 Z M 322.09375 327.789062 C 325.039062 327.789062 327.425781 325.402344 327.425781 322.457031 L 327.425781 136.613281 C 327.425781 134.457031 326.125 132.511719 324.132812 131.691406 C 322.140625 130.863281 319.847656 131.320312 318.324219 132.84375 L 225.386719 225.769531 C 223.304688 227.847656 223.304688 231.222656 225.386719 233.304688 C 227.46875 235.386719 230.84375 235.386719 232.925781 233.304688 L 316.761719 149.480469 L 316.761719 322.457031 C 316.761719 325.402344 319.148438 327.789062 322.09375 327.789062 Z M 52.742188 327.789062 C 54.105469 327.789062 55.46875 327.265625 56.511719 326.226562 L 325.863281 56.917969 C 327.945312 54.839844 327.945312 51.460938 325.863281 49.382812 C 323.78125 47.300781 320.40625 47.300781 318.324219 49.382812 L 48.972656 318.6875 C 46.890625 320.769531 46.890625 324.144531 48.972656 326.226562 C 50.015625 327.265625 51.378906 327.789062 52.742188 327.789062 " fill-opacity="1" fill-rule="nonzero"/></g></svg>